<svg id="arrow_1_" data-name="arrow (1)" xmlns="http://www.w3.org/2000/svg" width="21.376" height="18.332" viewBox="0 0 21.376 18.332">
  <g id="Group_24" data-name="Group 24" transform="translate(0 0)">
    <path fill="#2b3566" id="Path_72" data-name="Path 72" d="M1.285,39.507a1.528,1.528,0,0,1,.265-.02H16.63l-.329-.153a3.059,3.059,0,0,1-.864-.612l-4.229-4.229a1.583,1.583,0,0,1-.222-2.027,1.529,1.529,0,0,1,2.294-.2l7.647,7.647a1.529,1.529,0,0,1,0,2.163h0L13.28,49.727a1.529,1.529,0,0,1-2.294-.153,1.583,1.583,0,0,1,.222-2.027l4.221-4.237a3.059,3.059,0,0,1,.765-.558l.459-.206H1.633A1.583,1.583,0,0,1,.02,41.262,1.529,1.529,0,0,1,1.285,39.507Z" transform="translate(0 -31.842)"/>
  </g>
</svg>
