<svg xmlns="http://www.w3.org/2000/svg" width="792.154" height="792.761" viewBox="0 0 792.154 792.761">
  <g id="Group_38395" data-name="Group 38395" transform="translate(-19.554 -22.533)">
    <circle id="Ellipse_1" data-name="Ellipse 1" cx="1.583" cy="1.583" r="1.583" transform="translate(588.924 417.029)" fill="#fff"/>
    <circle id="Ellipse_2" data-name="Ellipse 2" cx="1.583" cy="1.583" r="1.583" transform="translate(580.329 471.292)" fill="#fff"/>
    <circle id="Ellipse_3" data-name="Ellipse 3" cx="1.583" cy="1.583" r="1.583" transform="translate(555.387 520.243)" fill="#fff"/>
    <circle id="Ellipse_4" data-name="Ellipse 4" cx="1.583" cy="1.583" r="1.583" transform="translate(516.539 559.092)" fill="#fff"/>
    <path id="Path_1" data-name="Path 1" d="M82.369,102.437a1.58,1.58,0,1,0-1.58-1.58A1.578,1.578,0,0,0,82.369,102.437Z" transform="translate(386.801 484.76)" fill="#fff"/>
    <circle id="Ellipse_5" data-name="Ellipse 5" cx="1.583" cy="1.583" r="1.583" transform="translate(413.324 592.629)" fill="#fff"/>
    <path id="Path_2" data-name="Path 2" d="M67.536,102.437a1.58,1.58,0,1,0-1.58-1.58A1.574,1.574,0,0,0,67.536,102.437Z" transform="translate(293.106 484.76)" fill="#fff"/>
    <circle id="Ellipse_6" data-name="Ellipse 6" cx="1.704" cy="1.704" r="1.704" transform="translate(309.987 558.97)" fill="#fff"/>
    <path id="Path_3" data-name="Path 3" d="M55.745,94.175a1.826,1.826,0,1,0-1.822-1.822A1.828,1.828,0,0,0,55.745,94.175Z" transform="translate(217.097 429.477)" fill="#fff"/>
    <circle id="Ellipse_7" data-name="Ellipse 7" cx="1.826" cy="1.826" r="1.826" transform="translate(246.074 471.048)" fill="#fff"/>
    <path id="Path_4" data-name="Path 4" d="M51.168,80.068a1.826,1.826,0,1,0-1.829-1.822A1.822,1.822,0,0,0,51.168,80.068Z" transform="translate(188.142 340.367)" fill="#fff"/>
    <circle id="Ellipse_8" data-name="Ellipse 8" cx="1.948" cy="1.948" r="1.948" transform="translate(245.953 362.4)" fill="#fff"/>
    <path id="Path_5" data-name="Path 5" d="M55.852,66.186a1.946,1.946,0,1,0-1.946-1.946A1.945,1.945,0,0,0,55.852,66.186Z" transform="translate(216.99 251.157)" fill="#fff"/>
    <circle id="Ellipse_9" data-name="Ellipse 9" cx="1.948" cy="1.948" r="1.948" transform="translate(309.743 274.6)" fill="#fff"/>
    <path id="Path_6" data-name="Path 6" d="M67.852,57.475a1.95,1.95,0,1,0-1.946-1.954A1.952,1.952,0,0,0,67.852,57.475Z" transform="translate(292.79 196.082)" fill="#fff"/>
    <path id="Path_7" data-name="Path 7" d="M75.168,56.068a1.826,1.826,0,1,0-1.829-1.822A1.822,1.822,0,0,0,75.168,56.068Z" transform="translate(339.742 188.767)" fill="#fff"/>
    <path id="Path_8" data-name="Path 8" d="M82.584,57.243a1.826,1.826,0,1,0-1.829-1.829A1.824,1.824,0,0,0,82.584,57.243Z" transform="translate(386.586 196.189)" fill="#fff"/>
    <path id="Path_9" data-name="Path 9" d="M89.268,60.652a1.826,1.826,0,1,0-1.822-1.829A1.83,1.83,0,0,0,89.268,60.652Z" transform="translate(428.851 217.723)" fill="#fff"/>
    <path id="Path_10" data-name="Path 10" d="M94.477,65.737a1.7,1.7,0,1,0-1.7-1.7A1.7,1.7,0,0,0,94.477,65.737Z" transform="translate(462.494 251.365)" fill="#fff"/>
    <circle id="Ellipse_10" data-name="Ellipse 10" cx="1.583" cy="1.583" r="1.583" transform="translate(580.329 362.765)" fill="#fff"/>
    <circle id="Ellipse_11" data-name="Ellipse 11" cx="5.478" cy="5.478" r="5.478" transform="translate(628.928 413.133)" fill="#fff"/>
    <circle id="Ellipse_12" data-name="Ellipse 12" cx="5.478" cy="5.478" r="5.478" transform="translate(622.032 467.721)" fill="#fff"/>
    <path id="Path_11" data-name="Path 11" d="M104.5,101.1a5.356,5.356,0,1,0-5.356-5.356A5.354,5.354,0,0,0,104.5,101.1Z" transform="translate(502.756 428.611)" fill="#fff"/>
    <path id="Path_12" data-name="Path 12" d="M100.082,107.183a5.356,5.356,0,1,0-5.356-5.356A5.358,5.358,0,0,0,100.082,107.183Z" transform="translate(474.836 467.042)" fill="#fff"/>
    <path id="Path_13" data-name="Path 13" d="M94.287,111.977a5.356,5.356,0,1,0-5.356-5.356A5.354,5.354,0,0,0,94.287,111.977Z" transform="translate(438.231 497.324)" fill="#fff"/>
    <path id="Path_14" data-name="Path 14" d="M87.483,115.178a5.356,5.356,0,1,0-5.356-5.356A5.354,5.354,0,0,0,87.483,115.178Z" transform="translate(395.253 517.543)" fill="#fff"/>
    <circle id="Ellipse_13" data-name="Ellipse 13" cx="5.478" cy="5.478" r="5.478" transform="translate(423.211 632.2)" fill="#fff"/>
    <circle id="Ellipse_14" data-name="Ellipse 14" cx="5.478" cy="5.478" r="5.478" transform="translate(368.298 628.745)" fill="#fff"/>
    <circle id="Ellipse_15" data-name="Ellipse 15" cx="5.478" cy="5.478" r="5.478" transform="translate(315.97 611.743)" fill="#fff"/>
    <path id="Path_15" data-name="Path 15" d="M59.3,110.211a5.6,5.6,0,1,0-5.6-5.6A5.6,5.6,0,0,0,59.3,110.211Z" transform="translate(215.689 483.124)" fill="#fff"/>
    <path id="Path_16" data-name="Path 16" d="M54.15,104.737a5.6,5.6,0,1,0-5.6-5.6A5.6,5.6,0,0,0,54.15,104.737Z" transform="translate(183.177 448.496)" fill="#fff"/>
    <path id="Path_17" data-name="Path 17" d="M50.635,98.371a5.722,5.722,0,1,0-5.722-5.722A5.721,5.721,0,0,0,50.635,98.371Z" transform="translate(160.184 406.762)" fill="#fff"/>
    <circle id="Ellipse_16" data-name="Ellipse 16" cx="5.722" cy="5.722" r="5.722" transform="translate(191.415 440.4)" fill="#fff"/>
    <circle id="Ellipse_17" data-name="Ellipse 17" cx="5.843" cy="5.843" r="5.843" transform="translate(191.294 385.257)" fill="#fff"/>
    <path id="Path_18" data-name="Path 18" d="M50.736,76.516A5.846,5.846,0,1,0,44.9,70.67,5.849,5.849,0,0,0,50.736,76.516Z" transform="translate(160.083 267.138)" fill="#fff"/>
    <path id="Path_19" data-name="Path 19" d="M54.365,69.92a5.842,5.842,0,1,0-5.846-5.846A5.849,5.849,0,0,0,54.365,69.92Z" transform="translate(182.962 225.518)" fill="#fff"/>
    <path id="Path_20" data-name="Path 20" d="M59.513,64.438a5.842,5.842,0,1,0-5.846-5.846A5.842,5.842,0,0,0,59.513,64.438Z" transform="translate(215.48 190.89)" fill="#fff"/>
    <circle id="Ellipse_18" data-name="Ellipse 18" cx="5.843" cy="5.843" r="5.843" transform="translate(315.605 214.159)" fill="#fff"/>
    <circle id="Ellipse_19" data-name="Ellipse 19" cx="5.843" cy="5.843" r="5.843" transform="translate(367.933 197.156)" fill="#fff"/>
    <circle id="Ellipse_20" data-name="Ellipse 20" cx="5.722" cy="5.722" r="5.722" transform="translate(422.967 193.823)" fill="#fff"/>
    <path id="Path_21" data-name="Path 21" d="M87.8,58.8a5.722,5.722,0,1,0-5.722-5.722A5.721,5.721,0,0,0,87.8,58.8Z" transform="translate(394.937 156.78)" fill="#fff"/>
    <path id="Path_22" data-name="Path 22" d="M94.6,62a5.722,5.722,0,1,0-5.722-5.722A5.721,5.721,0,0,0,94.6,62Z" transform="translate(437.916 177.006)" fill="#fff"/>
    <path id="Path_23" data-name="Path 23" d="M100.3,66.567a5.6,5.6,0,1,0-5.6-5.6A5.6,5.6,0,0,0,100.3,66.567Z" transform="translate(474.622 207.389)" fill="#fff"/>
    <path id="Path_24" data-name="Path 24" d="M104.717,72.643a5.6,5.6,0,1,0-5.6-5.6A5.6,5.6,0,0,0,104.717,72.643Z" transform="translate(502.541 245.819)" fill="#fff"/>
    <circle id="Ellipse_21" data-name="Ellipse 21" cx="5.478" cy="5.478" r="5.478" transform="translate(622.032 358.546)" fill="#fff"/>
    <path id="Path_25" data-name="Path 25" d="M117.58,93.906a9.252,9.252,0,1,0-9.256-9.248A9.249,9.249,0,0,0,117.58,93.906Z" transform="translate(560.73 333.956)" fill="#fff"/>
    <path id="Path_26" data-name="Path 26" d="M116.793,101.391a9.252,9.252,0,1,0-9.256-9.248A9.249,9.249,0,0,0,116.793,101.391Z" transform="translate(555.759 381.236)" fill="#fff"/>
    <circle id="Ellipse_22" data-name="Ellipse 22" cx="9.252" cy="9.252" r="9.252" transform="translate(646.282 516.494)" fill="#fff"/>
    <path id="Path_27" data-name="Path 27" d="M110.7,115.059a9.248,9.248,0,1,0-9.248-9.248A9.255,9.255,0,0,0,110.7,115.059Z" transform="translate(517.303 467.623)" fill="#fff"/>
    <path id="Path_28" data-name="Path 28" d="M105.661,120.659a9.252,9.252,0,1,0-9.248-9.248A9.251,9.251,0,0,0,105.661,120.659Z" transform="translate(485.493 502.946)" fill="#fff"/>
    <path id="Path_29" data-name="Path 29" d="M99.58,125.083a9.252,9.252,0,1,0-9.256-9.248A9.249,9.249,0,0,0,99.58,125.083Z" transform="translate(447.031 530.891)" fill="#fff"/>
    <path id="Path_30" data-name="Path 30" d="M92.7,128.144a9.252,9.252,0,1,0-9.248-9.248A9.255,9.255,0,0,0,92.7,128.144Z" transform="translate(403.603 550.226)" fill="#fff"/>
    <path id="Path_31" data-name="Path 31" d="M85.343,129.709a9.252,9.252,0,1,0-9.256-9.248A9.249,9.249,0,0,0,85.343,129.709Z" transform="translate(357.1 560.111)" fill="#fff"/>
    <circle id="Ellipse_23" data-name="Ellipse 23" cx="9.373" cy="9.373" r="9.373" transform="translate(378 671.195)" fill="#fff"/>
    <path id="Path_32" data-name="Path 32" d="M70.556,128.369A9.373,9.373,0,1,0,61.183,119,9.377,9.377,0,0,0,70.556,128.369Z" transform="translate(262.957 550.125)" fill="#fff"/>
    <path id="Path_33" data-name="Path 33" d="M63.687,125.308a9.373,9.373,0,1,0-9.38-9.373A9.377,9.377,0,0,0,63.687,125.308Z" transform="translate(219.523 530.789)" fill="#fff"/>
    <path id="Path_34" data-name="Path 34" d="M57.7,121.116a9.5,9.5,0,1,0-9.5-9.5A9.5,9.5,0,0,0,57.7,121.116Z" transform="translate(180.96 502.737)" fill="#fff"/>
    <path id="Path_35" data-name="Path 35" d="M52.663,115.523a9.5,9.5,0,1,0-9.5-9.5A9.5,9.5,0,0,0,52.663,115.523Z" transform="translate(149.149 467.408)" fill="#fff"/>
    <path id="Path_36" data-name="Path 36" d="M48.9,109a9.493,9.493,0,1,0-9.5-9.5A9.5,9.5,0,0,0,48.9,109Z" transform="translate(125.38 426.242)" fill="#fff"/>
    <path id="Path_37" data-name="Path 37" d="M46.675,102.073a9.618,9.618,0,1,0-9.614-9.614A9.622,9.622,0,0,0,46.675,102.073Z" transform="translate(110.586 380.92)" fill="#fff"/>
    <path id="Path_38" data-name="Path 38" d="M45.9,94.588a9.618,9.618,0,1,0-9.621-9.614A9.616,9.616,0,0,0,45.9,94.588Z" transform="translate(105.615 333.64)" fill="#fff"/>
    <path id="Path_39" data-name="Path 39" d="M46.675,87.1a9.614,9.614,0,1,0-9.614-9.614A9.618,9.618,0,0,0,46.675,87.1Z" transform="translate(110.586 286.366)" fill="#fff"/>
    <path id="Path_40" data-name="Path 40" d="M49.108,80.17a9.738,9.738,0,1,0-9.739-9.738A9.739,9.739,0,0,0,49.108,80.17Z" transform="translate(125.171 241.044)" fill="#fff"/>
    <path id="Path_41" data-name="Path 41" d="M52.871,73.652a9.738,9.738,0,1,0-9.738-9.738A9.735,9.735,0,0,0,52.871,73.652Z" transform="translate(148.941 199.872)" fill="#fff"/>
    <path id="Path_42" data-name="Path 42" d="M57.907,68.066a9.742,9.742,0,1,0-9.738-9.738A9.739,9.739,0,0,0,57.907,68.066Z" transform="translate(180.751 164.543)" fill="#fff"/>
    <path id="Path_43" data-name="Path 43" d="M64,63.636A9.738,9.738,0,1,0,54.257,53.9,9.739,9.739,0,0,0,64,63.636Z" transform="translate(219.207 136.604)" fill="#fff"/>
    <path id="Path_44" data-name="Path 44" d="M70.871,60.575a9.738,9.738,0,1,0-9.738-9.738A9.739,9.739,0,0,0,70.871,60.575Z" transform="translate(262.641 117.269)" fill="#fff"/>
    <circle id="Ellipse_24" data-name="Ellipse 24" cx="9.617" cy="9.617" r="9.617" transform="translate(377.756 147.037)" fill="#fff"/>
    <circle id="Ellipse_25" data-name="Ellipse 25" cx="9.617" cy="9.617" r="9.617" transform="translate(432.822 147.037)" fill="#fff"/>
    <path id="Path_45" data-name="Path 45" d="M93.013,60.35A9.618,9.618,0,1,0,83.4,50.735,9.618,9.618,0,0,0,93.013,60.35Z" transform="translate(403.288 117.37)" fill="#fff"/>
    <path id="Path_46" data-name="Path 46" d="M99.788,63.186a9.5,9.5,0,1,0-9.5-9.5A9.494,9.494,0,0,0,99.788,63.186Z" transform="translate(446.822 136.813)" fill="#fff"/>
    <path id="Path_47" data-name="Path 47" d="M105.876,67.6a9.493,9.493,0,1,0-9.5-9.49A9.494,9.494,0,0,0,105.876,67.6Z" transform="translate(485.278 164.758)" fill="#fff"/>
    <path id="Path_48" data-name="Path 48" d="M110.912,73.2a9.493,9.493,0,1,0-9.5-9.5A9.5,9.5,0,0,0,110.912,73.2Z" transform="translate(517.089 200.087)" fill="#fff"/>
    <circle id="Ellipse_26" data-name="Ellipse 26" cx="9.373" cy="9.373" r="9.373" transform="translate(646.161 302.104)" fill="#fff"/>
    <circle id="Ellipse_27" data-name="Ellipse 27" cx="9.373" cy="9.373" r="9.373" transform="translate(663.177 354.474)" fill="#fff"/>
    <path id="Path_49" data-name="Path 49" d="M126.94,101.166a13.148,13.148,0,1,0-13.148-13.148A13.146,13.146,0,0,0,126.94,101.166Z" transform="translate(595.27 330.595)" fill="#fff"/>
    <circle id="Ellipse_28" data-name="Ellipse 28" cx="13.147" cy="13.147" r="13.147" transform="translate(704.12 460.335)" fill="#fff"/>
    <circle id="Ellipse_29" data-name="Ellipse 29" cx="13.147" cy="13.147" r="13.147" transform="translate(689.464 513.441)" fill="#fff"/>
    <path id="Path_50" data-name="Path 50" d="M120.994,122.7a13.144,13.144,0,1,0-13.148-13.141A13.141,13.141,0,0,0,120.994,122.7Z" transform="translate(557.711 466.669)" fill="#fff"/>
    <path id="Path_51" data-name="Path 51" d="M116.569,128.8a13.148,13.148,0,1,0-13.148-13.148A13.141,13.141,0,0,0,116.569,128.8Z" transform="translate(529.76 505.144)" fill="#fff"/>
    <circle id="Ellipse_30" data-name="Ellipse 30" cx="13.147" cy="13.147" r="13.147" transform="translate(593.357 645.721)" fill="#fff"/>
    <path id="Path_52" data-name="Path 52" d="M104.842,138.151A13.148,13.148,0,1,0,91.694,125,13.152,13.152,0,0,0,104.842,138.151Z" transform="translate(455.684 564.217)" fill="#fff"/>
    <path id="Path_53" data-name="Path 53" d="M97.918,141.11A13.148,13.148,0,1,0,84.77,127.962,13.143,13.143,0,0,0,97.918,141.11Z" transform="translate(411.948 582.908)" fill="#fff"/>
    <path id="Path_54" data-name="Path 54" d="M90.577,142.786a13.148,13.148,0,1,0-13.148-13.148A13.148,13.148,0,0,0,90.577,142.786Z" transform="translate(365.577 593.495)" fill="#fff"/>
    <path id="Path_55" data-name="Path 55" d="M83.055,143.117a13.144,13.144,0,1,0-13.148-13.148A13.143,13.143,0,0,0,83.055,143.117Z" transform="translate(318.063 595.63)" fill="#fff"/>
    <path id="Path_56" data-name="Path 56" d="M75.7,142.338a13.269,13.269,0,1,0-13.272-13.265A13.268,13.268,0,0,0,75.7,142.338Z" transform="translate(270.827 589.137)" fill="#fff"/>
    <path id="Path_57" data-name="Path 57" d="M68.533,140.011a13.269,13.269,0,1,0-13.265-13.265A13.269,13.269,0,0,0,68.533,140.011Z" transform="translate(225.593 574.438)" fill="#fff"/>
    <path id="Path_58" data-name="Path 58" d="M61.909,136.443a13.269,13.269,0,1,0-13.272-13.265A13.268,13.268,0,0,0,61.909,136.443Z" transform="translate(183.708 551.9)" fill="#fff"/>
    <path id="Path_59" data-name="Path 59" d="M56.123,131.973a13.389,13.389,0,1,0-13.389-13.389A13.386,13.386,0,0,0,56.123,131.973Z" transform="translate(146.42 522.142)" fill="#fff"/>
    <path id="Path_60" data-name="Path 60" d="M51.17,126.3a13.389,13.389,0,1,0-13.39-13.389A13.391,13.391,0,0,0,51.17,126.3Z" transform="translate(115.128 486.327)" fill="#fff"/>
    <path id="Path_61" data-name="Path 61" d="M47.308,119.839a13.39,13.39,0,1,0-13.39-13.389A13.386,13.386,0,0,0,47.308,119.839Z" transform="translate(90.733 445.496)" fill="#fff"/>
    <circle id="Ellipse_31" data-name="Ellipse 31" cx="13.512" cy="13.512" r="13.512" transform="translate(105.168 486.852)" fill="#fff"/>
    <circle id="Ellipse_32" data-name="Ellipse 32" cx="13.512" cy="13.512" r="13.512" transform="translate(95.331 432.645)" fill="#fff"/>
    <circle id="Ellipse_33" data-name="Ellipse 33" cx="13.512" cy="13.512" r="13.512" transform="translate(95.331 377.552)" fill="#fff"/>
    <circle id="Ellipse_34" data-name="Ellipse 34" cx="13.512" cy="13.512" r="13.512" transform="translate(105.168 323.345)" fill="#fff"/>
    <circle id="Ellipse_35" data-name="Ellipse 35" cx="13.512" cy="13.512" r="13.512" transform="translate(124.526 271.766)" fill="#fff"/>
    <path id="Path_62" data-name="Path 62" d="M51.384,77.385A13.635,13.635,0,1,0,37.746,63.754,13.63,13.63,0,0,0,51.384,77.385Z" transform="translate(114.913 174.233)" fill="#fff"/>
    <path id="Path_63" data-name="Path 63" d="M56.338,71.715A13.635,13.635,0,1,0,42.7,58.077,13.636,13.636,0,0,0,56.338,71.715Z" transform="translate(146.206 138.417)" fill="#fff"/>
    <circle id="Ellipse_36" data-name="Ellipse 36" cx="13.634" cy="13.634" r="13.634" transform="translate(231.982 148.513)" fill="#fff"/>
    <path id="Path_64" data-name="Path 64" d="M68.849,63.452A13.635,13.635,0,1,0,55.218,49.821,13.632,13.632,0,0,0,68.849,63.452Z" transform="translate(225.278 86.222)" fill="#fff"/>
    <circle id="Ellipse_37" data-name="Ellipse 37" cx="13.512" cy="13.512" r="13.512" transform="translate(333.013 105.503)" fill="#fff"/>
    <circle id="Ellipse_38" data-name="Ellipse 38" cx="13.512" cy="13.512" r="13.512" transform="translate(387.606 98.108)" fill="#fff"/>
    <circle id="Ellipse_39" data-name="Ellipse 39" cx="13.512" cy="13.512" r="13.512" transform="translate(442.644 100.58)" fill="#fff"/>
    <circle id="Ellipse_40" data-name="Ellipse 40" cx="13.512" cy="13.512" r="13.512" transform="translate(496.355 112.839)" fill="#fff"/>
    <path id="Path_65" data-name="Path 65" d="M105.05,64.631a13.389,13.389,0,1,0-13.389-13.39A13.391,13.391,0,0,0,105.05,64.631Z" transform="translate(455.476 96.765)" fill="#fff"/>
    <path id="Path_66" data-name="Path 66" d="M111.335,68.779A13.389,13.389,0,1,0,97.945,55.39,13.386,13.386,0,0,0,111.335,68.779Z" transform="translate(495.17 122.967)" fill="#fff"/>
    <path id="Path_67" data-name="Path 67" d="M116.676,73.758A13.269,13.269,0,1,0,103.4,60.485,13.269,13.269,0,0,0,116.676,73.758Z" transform="translate(529.653 155.94)" fill="#fff"/>
    <circle id="Ellipse_41" data-name="Ellipse 41" cx="13.269" cy="13.269" r="13.269" transform="translate(665.439 247.728)" fill="#fff"/>
    <path id="Path_68" data-name="Path 68" d="M124.362,86.64A13.272,13.272,0,1,0,111.1,73.367,13.271,13.271,0,0,0,124.362,86.64Z" transform="translate(578.247 237.267)" fill="#fff"/>
    <circle id="Ellipse_42" data-name="Ellipse 42" cx="13.269" cy="13.269" r="13.269" transform="translate(703.999 350.472)" fill="#fff"/>
    <path id="Path_69" data-name="Path 69" d="M133.155,101.616a13.39,13.39,0,1,0-13.4-13.389A13.391,13.391,0,0,0,133.155,101.616Z" transform="translate(632.955 330.387)" fill="#fff"/>
    <path id="Path_70" data-name="Path 70" d="M132.564,109.131a13.393,13.393,0,1,0-13.4-13.389A13.4,13.4,0,0,0,132.564,109.131Z" transform="translate(629.222 377.812)" fill="#fff"/>
    <path id="Path_71" data-name="Path 71" d="M130.8,116.455a13.393,13.393,0,1,0-13.389-13.389A13.391,13.391,0,0,0,130.8,116.455Z" transform="translate(618.117 424.076)" fill="#fff"/>
    <path id="Path_72" data-name="Path 72" d="M127.917,123.407a13.39,13.39,0,1,0-13.389-13.389A13.387,13.387,0,0,0,127.917,123.407Z" transform="translate(599.913 468.033)" fill="#fff"/>
    <circle id="Ellipse_43" data-name="Ellipse 43" cx="13.512" cy="13.512" r="13.512" transform="translate(685.521 611.529)" fill="#fff"/>
    <circle id="Ellipse_44" data-name="Ellipse 44" cx="13.512" cy="13.512" r="13.512" transform="translate(649.73 653.435)" fill="#fff"/>
    <path id="Path_73" data-name="Path 73" d="M113.469,140.673a13.51,13.51,0,1,0-13.514-13.507A13.508,13.508,0,0,0,113.469,140.673Z" transform="translate(507.866 575.575)" fill="#fff"/>
    <circle id="Ellipse_45" data-name="Ellipse 45" cx="13.391" cy="13.391" r="13.391" transform="translate(560.957 718.142)" fill="#fff"/>
    <path id="Path_74" data-name="Path 74" d="M99.98,147.273a13.393,13.393,0,1,0-13.389-13.4A13.393,13.393,0,0,0,99.98,147.273Z" transform="translate(423.45 618.743)" fill="#fff"/>
    <path id="Path_75" data-name="Path 75" d="M92.657,149.025a13.389,13.389,0,1,0-13.389-13.389A13.393,13.393,0,0,0,92.657,149.025Z" transform="translate(377.187 629.854)" fill="#fff"/>
    <path id="Path_76" data-name="Path 76" d="M85.155,149.616a13.39,13.39,0,1,0-13.4-13.389A13.391,13.391,0,0,0,85.155,149.616Z" transform="translate(329.755 633.587)" fill="#fff"/>
    <circle id="Ellipse_46" data-name="Ellipse 46" cx="13.269" cy="13.269" r="13.269" transform="translate(346.698 752.218)" fill="#fff"/>
    <path id="Path_77" data-name="Path 77" d="M70.214,147.042a13.269,13.269,0,1,0-13.272-13.272A13.269,13.269,0,0,0,70.214,147.042Z" transform="translate(236.168 618.85)" fill="#fff"/>
    <circle id="Ellipse_47" data-name="Ellipse 47" cx="13.147" cy="13.147" r="13.147" transform="translate(242.317 718.385)" fill="#fff"/>
    <path id="Path_78" data-name="Path 78" d="M56.619,139.774A13.027,13.027,0,1,0,43.6,126.75,13.024,13.024,0,0,0,56.619,139.774Z" transform="translate(151.859 575.992)" fill="#fff"/>
    <path id="Path_79" data-name="Path 79" d="M50.891,134.875a13.024,13.024,0,1,0-13.024-13.024A13.026,13.026,0,0,0,50.891,134.875Z" transform="translate(115.677 545.097)" fill="#fff"/>
    <path id="Path_80" data-name="Path 80" d="M45.9,128.923a12.9,12.9,0,1,0-12.907-12.907A12.9,12.9,0,0,0,45.9,128.923Z" transform="translate(84.883 509.022)" fill="#fff"/>
    <path id="Path_81" data-name="Path 81" d="M41.855,122.275a12.782,12.782,0,1,0-12.782-12.782A12.781,12.781,0,0,0,41.855,122.275Z" transform="translate(60.128 468.558)" fill="#fff"/>
    <path id="Path_82" data-name="Path 82" d="M38.973,115.317a12.782,12.782,0,1,0-12.782-12.782A12.785,12.785,0,0,0,38.973,115.317Z" transform="translate(41.924 424.606)" fill="#fff"/>
    <path id="Path_83" data-name="Path 83" d="M37.107,107.768A12.661,12.661,0,1,0,24.449,95.11,12.664,12.664,0,0,0,37.107,107.768Z" transform="translate(30.92 378.444)" fill="#fff"/>
    <circle id="Ellipse_48" data-name="Ellipse 48" cx="12.539" cy="12.539" r="12.539" transform="translate(51.168 406.073)" fill="#fff"/>
    <circle id="Ellipse_49" data-name="Ellipse 49" cx="12.539" cy="12.539" r="12.539" transform="translate(55.491 351.133)" fill="#fff"/>
    <path id="Path_84" data-name="Path 84" d="M38.657,84.97A12.416,12.416,0,1,0,26.241,72.553,12.419,12.419,0,0,0,38.657,84.97Z" transform="translate(42.24 237.532)" fill="#fff"/>
    <path id="Path_85" data-name="Path 85" d="M41.539,78.011A12.416,12.416,0,1,0,29.123,65.594,12.418,12.418,0,0,0,41.539,78.011Z" transform="translate(60.444 193.574)" fill="#fff"/>
    <path id="Path_86" data-name="Path 86" d="M45.475,71.589A12.416,12.416,0,1,0,33.059,59.172,12.419,12.419,0,0,0,45.475,71.589Z" transform="translate(85.307 153.009)" fill="#fff"/>
    <path id="Path_87" data-name="Path 87" d="M50.366,65.862A12.416,12.416,0,1,0,37.95,53.445,12.414,12.414,0,0,0,50.366,65.862Z" transform="translate(116.201 116.833)" fill="#fff"/>
    <path id="Path_88" data-name="Path 88" d="M56.094,60.97A12.416,12.416,0,1,0,43.678,48.553,12.419,12.419,0,0,0,56.094,60.97Z" transform="translate(152.383 85.932)" fill="#fff"/>
    <path id="Path_89" data-name="Path 89" d="M62.516,57.034A12.416,12.416,0,1,0,50.1,44.617,12.414,12.414,0,0,0,62.516,57.034Z" transform="translate(192.949 61.07)" fill="#fff"/>
    <path id="Path_90" data-name="Path 90" d="M69.475,54.152A12.416,12.416,0,1,0,57.059,41.735,12.419,12.419,0,0,0,69.475,54.152Z" transform="translate(236.907 42.865)" fill="#fff"/>
    <path id="Path_91" data-name="Path 91" d="M76.907,52.618A12.537,12.537,0,1,0,64.366,40.085,12.534,12.534,0,0,0,76.907,52.618Z" transform="translate(283.062 31.653)" fill="#fff"/>
    <circle id="Ellipse_50" data-name="Ellipse 50" cx="12.539" cy="12.539" r="12.539" transform="translate(402.368 54.873)" fill="#fff"/>
    <path id="Path_92" data-name="Path 92" d="M92.025,52.85A12.661,12.661,0,1,0,79.367,40.192,12.664,12.664,0,0,0,92.025,52.85Z" transform="translate(377.819 31.545)" fill="#fff"/>
    <path id="Path_93" data-name="Path 93" d="M99.456,54.833A12.782,12.782,0,1,0,86.674,42.051,12.781,12.781,0,0,0,99.456,54.833Z" transform="translate(423.975 42.549)" fill="#fff"/>
    <path id="Path_94" data-name="Path 94" d="M106.415,57.715A12.782,12.782,0,1,0,93.633,44.933,12.781,12.781,0,0,0,106.415,57.715Z" transform="translate(467.932 60.754)" fill="#fff"/>
    <path id="Path_95" data-name="Path 95" d="M112.938,61.883a12.907,12.907,0,1,0-12.9-12.907A12.909,12.909,0,0,0,112.938,61.883Z" transform="translate(508.397 85.509)" fill="#fff"/>
    <path id="Path_96" data-name="Path 96" d="M118.78,67a13.027,13.027,0,1,0-13.031-13.024A13.024,13.024,0,0,0,118.78,67Z" transform="translate(544.465 116.302)" fill="#fff"/>
    <path id="Path_97" data-name="Path 97" d="M123.665,72.72A13.024,13.024,0,1,0,110.641,59.7,13.026,13.026,0,0,0,123.665,72.72Z" transform="translate(575.366 152.484)" fill="#fff"/>
    <path id="Path_98" data-name="Path 98" d="M127.708,79.374A13.148,13.148,0,1,0,114.56,66.226,13.148,13.148,0,0,0,127.708,79.374Z" transform="translate(600.121 192.943)" fill="#fff"/>
    <path id="Path_99" data-name="Path 99" d="M130.691,86.558a13.269,13.269,0,1,0-13.265-13.265A13.265,13.265,0,0,0,130.691,86.558Z" transform="translate(618.225 236.793)" fill="#fff"/>
    <path id="Path_100" data-name="Path 100" d="M132.456,93.882a13.269,13.269,0,1,0-13.272-13.265A13.268,13.268,0,0,0,132.456,93.882Z" transform="translate(629.329 283.056)" fill="#fff"/>
    <path id="Path_101" data-name="Path 101" d="M129.061,79.844a1.7,1.7,0,1,0-1.7-1.7A1.7,1.7,0,0,0,129.061,79.844Z" transform="translate(680.949 340.475)" fill="#fff"/>
    <path id="Path_102" data-name="Path 102" d="M128.642,87.584a1.826,1.826,0,1,0-1.829-1.829A1.83,1.83,0,0,0,128.642,87.584Z" transform="translate(677.519 387.843)" fill="#fff"/>
    <circle id="Ellipse_51" data-name="Ellipse 51" cx="1.826" cy="1.826" r="1.826" transform="translate(792.874 525.689)" fill="#fff"/>
    <circle id="Ellipse_52" data-name="Ellipse 52" cx="1.948" cy="1.948" r="1.948" transform="translate(773.9 577.365)" fill="#fff"/>
    <circle id="Ellipse_53" data-name="Ellipse 53" cx="1.948" cy="1.948" r="1.948" transform="translate(748.023 626.034)" fill="#fff"/>
    <circle id="Ellipse_54" data-name="Ellipse 54" cx="1.948" cy="1.948" r="1.948" transform="translate(715.623 670.629)" fill="#fff"/>
    <circle id="Ellipse_55" data-name="Ellipse 55" cx="1.948" cy="1.948" r="1.948" transform="translate(677.332 710.28)" fill="#fff"/>
    <circle id="Ellipse_56" data-name="Ellipse 56" cx="1.948" cy="1.948" r="1.948" transform="translate(633.896 744.216)" fill="#fff"/>
    <circle id="Ellipse_57" data-name="Ellipse 57" cx="1.948" cy="1.948" r="1.948" transform="translate(586.159 771.777)" fill="#fff"/>
    <circle id="Ellipse_58" data-name="Ellipse 58" cx="1.948" cy="1.948" r="1.948" transform="translate(535.051 792.426)" fill="#fff"/>
    <path id="Path_103" data-name="Path 103" d="M84.545,133.248a1.825,1.825,0,1,0-1.829-1.829A1.828,1.828,0,0,0,84.545,133.248Z" transform="translate(398.973 676.288)" fill="#fff"/>
    <path id="Path_104" data-name="Path 104" d="M77.046,134.035a1.825,1.825,0,1,0-1.822-1.822A1.823,1.823,0,0,0,77.046,134.035Z" transform="translate(351.649 681.259)" fill="#fff"/>
    <path id="Path_105" data-name="Path 105" d="M69.416,133.548a1.7,1.7,0,1,0-1.7-1.7A1.7,1.7,0,0,0,69.416,133.548Z" transform="translate(304.192 679.705)" fill="#fff"/>
    <path id="Path_106" data-name="Path 106" d="M62,132.24a1.7,1.7,0,1,0-1.7-1.7A1.711,1.711,0,0,0,62,132.24Z" transform="translate(257.328 671.443)" fill="#fff"/>
    <circle id="Ellipse_59" data-name="Ellipse 59" cx="1.704" cy="1.704" r="1.704" transform="translate(265.195 783.237)" fill="#fff"/>
    <path id="Path_107" data-name="Path 107" d="M47.96,126.377a1.58,1.58,0,1,0-1.588-1.58A1.578,1.578,0,0,0,47.96,126.377Z" transform="translate(169.4 635.981)" fill="#fff"/>
    <circle id="Ellipse_60" data-name="Ellipse 60" cx="1.583" cy="1.583" r="1.583" transform="translate(170.075 728.372)" fill="#fff"/>
    <path id="Path_108" data-name="Path 108" d="M36,116.9a1.46,1.46,0,1,0-1.456-1.463A1.463,1.463,0,0,0,36,116.9Z" transform="translate(94.693 577.634)" fill="#fff"/>
    <path id="Path_109" data-name="Path 109" d="M31.165,111.134A1.463,1.463,0,1,0,29.7,109.67,1.461,1.461,0,0,0,31.165,111.134Z" transform="translate(64.102 541.174)" fill="#fff"/>
    <path id="Path_110" data-name="Path 110" d="M27.065,104.513a1.339,1.339,0,1,0-1.339-1.339A1.34,1.34,0,0,0,27.065,104.513Z" transform="translate(38.986 500.924)" fill="#fff"/>
    <path id="Path_111" data-name="Path 111" d="M24,97.631a1.339,1.339,0,1,0-1.339-1.339A1.34,1.34,0,0,0,24,97.631Z" transform="translate(19.632 457.453)" fill="#fff"/>
    <circle id="Ellipse_61" data-name="Ellipse 61" cx="1.339" cy="1.339" r="1.339" transform="translate(27.101 499.418)" fill="#fff"/>
    <path id="Path_112" data-name="Path 112" d="M20.769,82.7a1.218,1.218,0,1,0-1.215-1.215A1.216,1.216,0,0,0,20.769,82.7Z" transform="translate(0 364.686)" fill="#fff"/>
    <path id="Path_113" data-name="Path 113" d="M20.769,75.163a1.215,1.215,0,1,0-1.215-1.215A1.212,1.212,0,0,0,20.769,75.163Z" transform="translate(0 317.103)" fill="#fff"/>
    <path id="Path_114" data-name="Path 114" d="M21.824,67.709A1.218,1.218,0,1,0,20.6,66.495,1.221,1.221,0,0,0,21.824,67.709Z" transform="translate(6.62 269.974)" fill="#fff"/>
    <path id="Path_115" data-name="Path 115" d="M23.894,60.467a1.218,1.218,0,1,0-1.215-1.215A1.212,1.212,0,0,0,23.894,60.467Z" transform="translate(19.74 224.229)" fill="#fff"/>
    <path id="Path_116" data-name="Path 116" d="M26.85,53.354a1.094,1.094,0,1,0-1.09-1.1A1.1,1.1,0,0,0,26.85,53.354Z" transform="translate(39.201 180.865)" fill="#fff"/>
    <path id="Path_117" data-name="Path 117" d="M30.849,46.965a1.094,1.094,0,1,0-1.1-1.1A1.095,1.095,0,0,0,30.849,46.965Z" transform="translate(64.417 140.508)" fill="#fff"/>
    <path id="Path_118" data-name="Path 118" d="M35.691,41.2a1.1,1.1,0,1,0-1.1-1.1A1.1,1.1,0,0,0,35.691,41.2Z" transform="translate(95.003 104.048)" fill="#fff"/>
    <path id="Path_119" data-name="Path 119" d="M41.29,36.159a1.1,1.1,0,1,0-1.1-1.1A1.1,1.1,0,0,0,41.29,36.159Z" transform="translate(130.37 72.206)" fill="#fff"/>
    <path id="Path_120" data-name="Path 120" d="M47.537,31.94a1.094,1.094,0,1,0-1.1-1.1A1.094,1.094,0,0,0,47.537,31.94Z" transform="translate(169.824 45.6)" fill="#fff"/>
    <path id="Path_121" data-name="Path 121" d="M54.415,28.868a1.218,1.218,0,0,0,0-2.436,1.218,1.218,0,1,0,0,2.436Z" transform="translate(212.486 24.629)" fill="#fff"/>
    <circle id="Ellipse_62" data-name="Ellipse 62" cx="1.217" cy="1.217" r="1.217" transform="translate(318.105 34.03)" fill="#fff"/>
    <circle id="Ellipse_63" data-name="Ellipse 63" cx="1.217" cy="1.217" r="1.217" transform="translate(372.389 24.458)" fill="#fff"/>
    <path id="Path_122" data-name="Path 122" d="M76.522,24.969a1.218,1.218,0,1,0-1.215-1.215A1.212,1.212,0,0,0,76.522,24.969Z" transform="translate(352.173 0)" fill="#fff"/>
    <path id="Path_123" data-name="Path 123" d="M84.128,25.982a1.339,1.339,0,1,0-1.346-1.339A1.34,1.34,0,0,0,84.128,25.982Z" transform="translate(399.39 4.87)" fill="#fff"/>
    <path id="Path_124" data-name="Path 124" d="M91.431,27.8a1.339,1.339,0,1,0-1.339-1.339A1.335,1.335,0,0,0,91.431,27.8Z" transform="translate(445.565 16.385)" fill="#fff"/>
    <circle id="Ellipse_64" data-name="Ellipse 64" cx="1.339" cy="1.339" r="1.339" transform="translate(586.768 62.159)" fill="#fff"/>
    <path id="Path_125" data-name="Path 125" d="M105.048,34.618a1.46,1.46,0,1,0-1.463-1.456A1.461,1.461,0,0,0,105.048,34.618Z" transform="translate(530.796 57.899)" fill="#fff"/>
    <path id="Path_126" data-name="Path 126" d="M110.985,39.264a1.463,1.463,0,1,0-1.463-1.463A1.461,1.461,0,0,0,110.985,39.264Z" transform="translate(568.298 87.195)" fill="#fff"/>
    <path id="Path_127" data-name="Path 127" d="M116.319,44.9a1.58,1.58,0,1,0-1.58-1.58A1.578,1.578,0,0,0,116.319,44.9Z" transform="translate(601.252 121.324)" fill="#fff"/>
    <path id="Path_128" data-name="Path 128" d="M120.747,51a1.58,1.58,0,1,0-1.58-1.58A1.574,1.574,0,0,0,120.747,51Z" transform="translate(629.222 159.824)" fill="#fff"/>
    <circle id="Ellipse_65" data-name="Ellipse 65" cx="1.583" cy="1.583" r="1.583" transform="translate(774.265 256.327)" fill="#fff"/>
    <path id="Path_129" data-name="Path 129" d="M126.969,64.959a1.7,1.7,0,1,0-1.7-1.7A1.706,1.706,0,0,0,126.969,64.959Z" transform="translate(667.735 246.451)" fill="#fff"/>
    <path id="Path_130" data-name="Path 130" d="M128.535,72.328a1.7,1.7,0,1,0-1.7-1.7A1.7,1.7,0,0,0,128.535,72.328Z" transform="translate(677.627 292.999)" fill="#fff"/>
  </g>
</svg>
