<svg xmlns="http://www.w3.org/2000/svg" width="57.673" height="75.714" viewBox="0 0 57.673 75.714">
  <g id="document_2_" data-name="document (2)" transform="translate(-61)">
    <path id="Path_10451" data-name="Path 10451" d="M116.129,15.715,101.87,2.225A8.1,8.1,0,0,0,96.281,0H69.133A8.143,8.143,0,0,0,61,8.133V67.581a8.143,8.143,0,0,0,8.133,8.133H110.54a8.143,8.143,0,0,0,8.133-8.133V21.623a8.167,8.167,0,0,0-2.544-5.908Zm-4.309,2.031H100.779a.74.74,0,0,1-.739-.739V6.6ZM110.54,71.278H69.133a3.7,3.7,0,0,1-3.7-3.7V8.133a3.7,3.7,0,0,1,3.7-3.7H95.6v12.57a5.182,5.182,0,0,0,5.176,5.176h13.457v45.4A3.7,3.7,0,0,1,110.54,71.278Z" fill="#0fc6d9"/>
    <path id="Path_10452" data-name="Path 10452" d="M162.752,200H130.218a2.218,2.218,0,1,0,0,4.436h32.533a2.218,2.218,0,1,0,0-4.436Z" transform="translate(-57.092 -170.424)" fill="#b6eff5"/>
    <path id="Path_10453" data-name="Path 10453" d="M162.752,280H130.218a2.218,2.218,0,1,0,0,4.436h32.533a2.218,2.218,0,1,0,0-4.436Z" transform="translate(-57.092 -238.594)" fill="#b6eff5"/>
    <path id="Path_10454" data-name="Path 10454" d="M140.972,360H130.218a2.218,2.218,0,1,0,0,4.436h10.754a2.218,2.218,0,1,0,0-4.436Z" transform="translate(-57.092 -306.764)" fill="#b6eff5"/>
  </g>
</svg>
