<svg xmlns="http://www.w3.org/2000/svg" width="93.487" height="96.131" viewBox="0 0 93.487 96.131">
  <g id="question" transform="translate(-4 -2.999)">
    <path id="Path_12930" data-name="Path 12930" d="M50.744,3A46.222,46.222,0,0,0,4,48.577a44.657,44.657,0,0,0,13.829,32.3,2.461,2.461,0,0,1,.771,2.2L16.628,93.588a4.669,4.669,0,0,0,6.811,4.978l11.728-6.31a2.41,2.41,0,0,1,1.846-.15,47.4,47.4,0,0,0,13.731,2.045A46.222,46.222,0,0,0,97.487,48.577,46.222,46.222,0,0,0,50.744,3Z" transform="translate(0 0)" fill="#e2fcff"/>
    <g id="Group_38041" data-name="Group 38041" transform="translate(36.721 24.036)">
      <path id="Path_12931" data-name="Path 12931" d="M32.023,51.732a2.337,2.337,0,0,1-2.337-2.337V41.682a6.976,6.976,0,0,1,5.027-6.705,9.349,9.349,0,1,0-12.039-8.954,2.337,2.337,0,0,1-4.674,0A14.029,14.029,0,1,1,36.057,39.457a2.337,2.337,0,0,0-1.7,2.225v7.713A2.337,2.337,0,0,1,32.023,51.732Z" transform="translate(-18 -12)" fill="#0fc6d9"/>
      <circle id="Ellipse_621" data-name="Ellipse 621" cx="3.506" cy="3.506" r="3.506" transform="translate(10.517 43.238)" fill="#0fc6d9"/>
    </g>
  </g>
</svg>
