<svg id="arrow_1_" data-name="arrow (1)" xmlns="http://www.w3.org/2000/svg" width="18.733" height="16.066" viewBox="0 0 18.733 16.066">
  <g id="Group_24" data-name="Group 24" transform="translate(0 0)">
    <path id="Path_72" data-name="Path 72" d="M1.126,38.56a1.339,1.339,0,0,1,.232-.017H14.573l-.288-.134a2.681,2.681,0,0,1-.757-.536L9.822,34.166a1.387,1.387,0,0,1-.194-1.776,1.34,1.34,0,0,1,2.011-.174l6.7,6.7a1.34,1.34,0,0,1,0,1.9h0l-6.7,6.7a1.34,1.34,0,0,1-2.011-.134,1.387,1.387,0,0,1,.194-1.776l3.7-3.713a2.681,2.681,0,0,1,.67-.489l.4-.181H1.431A1.387,1.387,0,0,1,.017,40.1,1.34,1.34,0,0,1,1.126,38.56Z" transform="translate(0 -31.842)"/>
  </g>
</svg>
