<svg xmlns="http://www.w3.org/2000/svg" width="17" height="20.923" viewBox="0 0 17 20.923">
  <g id="trash" transform="translate(-48)">
    <path id="Path_10455" data-name="Path 10455" d="M63.365,2.615h-3.6V1.962A1.964,1.964,0,0,0,57.808,0H55.192a1.964,1.964,0,0,0-1.962,1.962v.654h-3.6A1.636,1.636,0,0,0,48,4.25V6.538a.654.654,0,0,0,.654.654h.357l.565,11.863a1.959,1.959,0,0,0,1.959,1.868h9.929a1.959,1.959,0,0,0,1.959-1.868l.565-11.863h.357A.654.654,0,0,0,65,6.538V4.25a1.636,1.636,0,0,0-1.635-1.635Zm-8.827-.654a.655.655,0,0,1,.654-.654h2.615a.655.655,0,0,1,.654.654v.654H54.538ZM49.308,4.25a.327.327,0,0,1,.327-.327H63.365a.327.327,0,0,1,.327.327V5.885H49.308Zm12.81,14.743a.653.653,0,0,1-.653.623H51.535a.653.653,0,0,1-.653-.623l-.562-11.8H62.68Z" fill="#0fc6d9"/>
    <path id="Path_10456" data-name="Path 10456" d="M240.654,217.808a.654.654,0,0,0,.654-.654v-8.5a.654.654,0,0,0-1.308,0v8.5A.654.654,0,0,0,240.654,217.808Z" transform="translate(-184.154 -199.5)" fill="#b6eff5"/>
    <path id="Path_10457" data-name="Path 10457" d="M320.654,217.808a.654.654,0,0,0,.654-.654v-8.5a.654.654,0,1,0-1.308,0v8.5A.654.654,0,0,0,320.654,217.808Z" transform="translate(-260.885 -199.5)" fill="#b6eff5"/>
    <path id="Path_10458" data-name="Path 10458" d="M160.654,217.808a.654.654,0,0,0,.654-.654v-8.5a.654.654,0,0,0-1.308,0v8.5A.654.654,0,0,0,160.654,217.808Z" transform="translate(-107.423 -199.5)" fill="#b6eff5"/>
  </g>
</svg>
